<svg data-v-0dd9719b="" version="1.0" xmlns="http://www.w3.org/2000/svg" xmlns:xlink="http://www.w3.org/1999/xlink" width="100%" height="100%" viewBox="0 0 340.000000 250.000000" preserveAspectRatio="xMidYMid meet" color-interpolation-filters="sRGB" style="margin: auto;"> <rect data-v-0dd9719b="" x="0" y="0" width="100%" height="100%" fill="#ffffff" fill-opacity="1" class="background"></rect> <rect data-v-0dd9719b="" x="0" y="0" width="100%" height="100%" fill="url(#watermark)" fill-opacity="1" class="watermarklayer"></rect> <g data-v-0dd9719b="" fill="#363383" class="icon-text-wrapper icon-svg-group iconsvg" transform="translate(55.86115264892578,100.49196910858154)"><g fill="#FF3938" class="iconsvg-imagesvg icon_container" transform="translate(0,0)"><rect fill="#363383" fill-opacity="0" stroke-width="2" x="0" y="0" width="60.75282308657465" height="60.75282308657465" class="image-rect"></rect> <svg viewBox="0 0 60 60" x="0" y="0" width="60.75282308657465" height="60.75282308657465" class="image-svg-svg bn" style="overflow: visible;"><g hollow-target="iconBnFill" mask="url(#e1d998be-46d3-415f-aa8d-7bd8b954f618)"><g><svg fill="#000000" xmlns="http://www.w3.org/2000/svg" xmlns:xlink="http://www.w3.org/1999/xlink" viewBox="0 0 64 64" version="1.1" x="0" y="0" style="overflow: visible;" width="60" height="60" filtersec="colorsf6045098415" filter="url(#9TnzxT0M_B0kzcD1ly0vs)"><g transform="scale(1, 1) skewX(0)"><title>30</title><desc>Created with Sketch.</desc><g fill-rule="evenodd"><g fill="#000000"><path d="M64,32 L64,64 L32.0000097,64 C14.326888,64 0,49.673112 0,32 C0,14.326888 14.326888,0 32,0 C49.673112,0 64,14.326888 64,32 Z"></path></g></g></g><defs><filter id="9TnzxT0M_B0kzcD1ly0vs"><feColorMatrix type="matrix" values="0 0 0 0 0.99609375  0 0 0 0 0.22265625  0 0 0 0 0.21875  0 0 0 1 0"></feColorMatrix></filter></defs></svg></g> <g filter="url(#colors8685676070)"><svg xmlns="http://www.w3.org/2000/svg" xmlns:xlink="http://www.w3.org/1999/xlink" viewBox="0 0 34.59647854477612 55.6238451731499" width="35.1" height="35.1" x="12.45" y="12.45" class="image-svg-letter"><path transform="translate(-3.6703125 54.406985294117646)" d="M5.48-1.97L5.48-1.97Q12.80 1.76 21.38 1.13L21.38 1.13Q29.67 0.42 34.10-3.80Q38.53-8.02 38.25-14.84L38.25-14.84Q38.04-20.18 34.91-23.45Q31.78-26.72 23.48-30.38L23.48-30.38Q17.86-32.91 15.82-34.28Q13.78-35.65 12.80-37.76L12.80-37.76Q10.13-43.45 14.03-47.64Q17.93-51.82 24.89-50.84L24.89-50.84Q27.56-50.48 28.34-49.54Q29.11-48.59 30.16-44.23L30.16-44.23Q31.08-40.36 31.32-39.97Q31.57-39.59 33.19-39.59L33.19-39.59Q34.88-39.59 35.09-39.97Q35.30-40.36 35.44-43.88L35.44-43.88Q35.65-48.87 35.54-49.61Q35.44-50.34 34.59-50.91L34.59-50.91Q29.53-54.14 23.24-54.39Q16.95-54.63 11.92-51.89Q6.89-49.15 5.27-44.44L5.27-44.44Q2.88-37.41 6.43-32.27Q9.98-27.14 20.32-22.64L20.32-22.64Q26.02-20.18 28.02-18.46Q30.02-16.73 30.59-13.85L30.59-13.85Q31.92-7.88 26.93-4.36Q21.94-0.84 14.55-2.46L14.55-2.46Q11.53-3.02 10.79-3.97Q10.05-4.92 9-9.56L9-9.56Q8.09-13.50 7.80-13.96Q7.52-14.41 5.98-14.41L5.98-14.41Q4.50-14.41 4.29-14.13L4.29-14.13Q3.94-13.71 3.80-8.58L3.80-8.58Q3.59-3.80 3.73-3.27Q3.87-2.74 5.48-1.97Z"></path></svg></g></g><mask id="e1d998be-46d3-415f-aa8d-7bd8b954f618"><g fill="white"><svg xmlns="http://www.w3.org/2000/svg" xmlns:xlink="http://www.w3.org/1999/xlink" viewBox="0 0 64 64" version="1.1" x="0" y="0" style="overflow: visible;" width="60" height="60" filtersec="colorsf6045098415"><g transform="scale(1, 1) skewX(0)"><title>30</title><desc>Created with Sketch.</desc><g fill-rule="evenodd"><g><path d="M64,32 L64,64 L32.0000097,64 C14.326888,64 0,49.673112 0,32 C0,14.326888 14.326888,0 32,0 C49.673112,0 64,14.326888 64,32 Z"></path></g></g></g><defs></defs></svg></g> <g fill="black"><svg xmlns="http://www.w3.org/2000/svg" xmlns:xlink="http://www.w3.org/1999/xlink" viewBox="0 0 34.59647854477612 55.6238451731499" width="35.1" height="35.1" x="12.45" y="12.45" class="image-svg-letter"><path transform="translate(-3.6703125 54.406985294117646)" d="M5.48-1.97L5.48-1.97Q12.80 1.76 21.38 1.13L21.38 1.13Q29.67 0.42 34.10-3.80Q38.53-8.02 38.25-14.84L38.25-14.84Q38.04-20.18 34.91-23.45Q31.78-26.72 23.48-30.38L23.48-30.38Q17.86-32.91 15.82-34.28Q13.78-35.65 12.80-37.76L12.80-37.76Q10.13-43.45 14.03-47.64Q17.93-51.82 24.89-50.84L24.89-50.84Q27.56-50.48 28.34-49.54Q29.11-48.59 30.16-44.23L30.16-44.23Q31.08-40.36 31.32-39.97Q31.57-39.59 33.19-39.59L33.19-39.59Q34.88-39.59 35.09-39.97Q35.30-40.36 35.44-43.88L35.44-43.88Q35.65-48.87 35.54-49.61Q35.44-50.34 34.59-50.91L34.59-50.91Q29.53-54.14 23.24-54.39Q16.95-54.63 11.92-51.89Q6.89-49.15 5.27-44.44L5.27-44.44Q2.88-37.41 6.43-32.27Q9.98-27.14 20.32-22.64L20.32-22.64Q26.02-20.18 28.02-18.46Q30.02-16.73 30.59-13.85L30.59-13.85Q31.92-7.88 26.93-4.36Q21.94-0.84 14.55-2.46L14.55-2.46Q11.53-3.02 10.79-3.97Q10.05-4.92 9-9.56L9-9.56Q8.09-13.50 7.80-13.96Q7.52-14.41 5.98-14.41L5.98-14.41Q4.50-14.41 4.29-14.13L4.29-14.13Q3.94-13.71 3.80-8.58L3.80-8.58Q3.59-3.80 3.73-3.27Q3.87-2.74 5.48-1.97Z"></path></svg></g></mask></svg> <defs><filter id="colors8685676070"><feColorMatrix type="matrix" values="0 0 0 0 0.2109375  0 0 0 0 0.19921875  0 0 0 0 0.51171875  0 0 0 1 0" class="icon-fecolormatrix"></feColorMatrix></filter> <filter id="colorsf6045098415"><feColorMatrix type="matrix" values="0 0 0 0 0.99609375  0 0 0 0 0.99609375  0 0 0 0 0.99609375  0 0 0 1 0" class="icon-fecolormatrix"></feColorMatrix></filter> <filter id="colorsb3303998783"><feColorMatrix type="matrix" values="0 0 0 0 0  0 0 0 0 0  0 0 0 0 0  0 0 0 1 0" class="icon-fecolormatrix"></feColorMatrix></filter></defs></g> <g transform="translate(65.75282287597656,3.539592742919922)"><g data-gra="path-name" fill-rule="" class="tp-name iconsvg-namesvg" transform="translate(0,0)"><g transform="scale(1)"><g><path d="M3.01 1.87L3.01 1.87Q3.13 1.91 4.19 1.75L4.19 1.75Q6.02 1.46 8.28 1.42 10.54 1.38 22.99 1.34L22.99 1.34Q38.53 1.3 39.1 1.14L39.1 1.14Q39.27 1.1 39.35 0.9L39.35 0.9Q39.63 0.12 35.81-2.64L35.81-2.64Q35.07-3.17 34.77-3.03 34.46-2.89 33.53-1.59L33.53-1.59Q33.41-1.38 33.16-1.06L33.16-1.06Q32.55-0.12 31.98 0.02 31.41 0.16 28.52 0.16L28.52 0.16Q27.59 0.16 27.02 0.16L27.02 0.16Q22.34 0.12 21.97-0.04L21.97-0.04Q21.77-0.16 21.65-0.69L21.65-0.69Q21.48-1.38 21.57-9.32 21.65-17.25 21.81-17.46L21.81-17.46Q22.09-17.86 22.85-17.92 23.6-17.99 29.13-17.99L29.13-17.99Q36.13-17.99 36.3-18.51L36.3-18.51Q36.38-18.84 35.2-20 34.02-21.16 32.67-22.05L32.67-22.05Q32.1-22.46 31.82-22.28 31.53-22.09 30.56-20.79L30.56-20.79Q29.66-19.61 29.38-19.45L29.38-19.45Q28.93-19.21 26.16-19.17L26.16-19.17Q25.92-19.17 25.72-19.17L25.72-19.17Q25.23-19.17 24.45-19.17L24.45-19.17Q22.26-19.08 21.89-19.67 21.53-20.26 21.57-23.84L21.57-23.84Q21.57-25.15 21.57-25.92L21.57-25.92Q21.61-30.44 21.67-31.25 21.73-32.06 22.18-32.43L22.18-32.43Q22.22-32.47 22.26-32.51L22.26-32.51Q22.91-33.08 21.4-33.65L21.4-33.65Q20.47-33.98 18.31-34.51L18.31-34.51Q17.29-34.75 17.17-34.67 17.05-34.59 17.13-33.77L17.13-33.77Q17.37-31.94 17.42-29.58 17.46-27.22 17.46-15.67L17.46-15.67Q17.5-0.9 17.33-0.28L17.33-0.28Q17.21-0.04 17.01 0.04L17.01 0.04Q16.76 0.16 10.62 0.14 4.48 0.12 3.21 0L3.21 0Q2.2-0.08 2.16-0.04L2.16-0.04Q2.12 0.04 2.52 0.92 2.93 1.79 3.01 1.87ZM46.96 0L46.96 0Q46.75 1.83 47.14 2.64 47.53 3.46 48.75 3.46L48.75 3.46Q52.49 2.97 50.46-4.52L50.46-4.52Q49.93-6.51 49.97-7.91 50.01-9.32 50.66-11.8L50.66-11.8Q51.19-13.75 52.21-17.09 53.22-20.43 53.39-21.04L53.39-21.04Q54.24-24.13 54.36-24.58L54.36-24.58Q55.05-26.9 55.11-27.22 55.18-27.55 54.97-27.67L54.97-27.67Q54.73-27.79 54.44-27.26L54.44-27.26Q54.2-26.81 53.34-24.62L53.34-24.62Q51.88-20.96 49.93-16.19L49.93-16.19Q47.69-10.62 47.12-9.68 46.55-8.75 45.37-8.75L45.37-8.75Q45.33-8.75 45.29-8.75L45.29-8.75Q44.68-8.75 44.51-8.69 44.35-8.63 44.35-8.34L44.35-8.34Q44.35-8.02 45-7.85L45-7.85Q47.85-7.32 46.96 0ZM68.89 3.3L68.89 3.3Q69.05 3.46 70.21 3.26 71.37 3.05 72.1 2.73L72.1 2.73Q73.36 2.12 73.99 1.12 74.63 0.12 75.15-1.99L75.15-1.99Q75.52-3.54 75.89-3.74 76.25-3.95 78.61-3.99L78.61-3.99Q81.38-4.07 81.52-4.64 81.67-5.21 79.43-7.24L79.43-7.24Q78.49-8.06 78.23-8.06 77.96-8.06 77.39-7.16L77.39-7.16Q76.33-5.62 76.13-6.18L76.13-6.18Q75.97-6.67 76.17-9.28L76.17-9.28Q76.17-9.56 76.21-10.09L76.21-10.09Q76.38-12.45 76.74-12.82L76.74-12.82Q77.03-13.18 78.65-13.18L78.65-13.18Q78.98-13.18 79.18-13.18L79.18-13.18Q80.85-13.22 81.18-13.26 81.5-13.31 81.75-13.59L81.75-13.59Q82.11-14.08 80.32-15.83L80.32-15.83Q79.26-16.89 78.92-16.95 78.57-17.01 78.04-16.24L78.04-16.24Q77.11-14.93 76.9-15.3L76.9-15.3Q76.7-15.63 76.7-17.86L76.7-17.86Q76.7-20.39 76.84-20.94 76.99-21.48 77.8-21.85L77.8-21.85Q78.17-22.01 78.29-22.2 78.41-22.38 78.23-22.71 78.04-23.03 77.64-23.42 77.23-23.8 76.42-24.5L76.42-24.5Q75.4-25.35 75.09-25.35 74.79-25.35 74.02-24.5L74.02-24.5Q73.24-23.64 72.96-23.52L72.96-23.52Q72.43-23.32 68.28-23.32L68.28-23.32Q67.95-23.32 67.67-23.32L67.67-23.32Q63.64-23.32 62.95-23.4 62.26-23.48 61.12-24.05L61.12-24.05Q60.1-24.54 60.1-25.21 60.1-25.88 61.16-27.06L61.16-27.06Q61.52-27.43 61.81-27.51L61.81-27.51Q62.5-27.63 71.21-27.67L71.21-27.67Q80.28-27.71 80.77-27.87L80.77-27.87Q80.93-27.95 80.93-28.28L80.93-28.28Q80.93-28.65 79.43-30.11 77.92-31.58 77.39-31.7L77.39-31.7Q77.15-31.78 76.94-31.62 76.74-31.45 76.21-30.72L76.21-30.72Q76.05-30.52 75.85-30.15L75.85-30.15Q75.24-29.26 74.71-29.05L74.71-29.05Q74.1-28.85 70.52-28.85L70.52-28.85Q69.46-28.85 68.85-28.85L68.85-28.85Q68.36-28.85 67.5-28.85L67.5-28.85Q63.23-28.85 62.78-29.13L62.78-29.13Q62.42-29.38 62.91-30.44L62.91-30.44Q62.95-30.48 62.99-30.56L62.99-30.56Q63.11-30.8 63.15-30.92L63.15-30.92Q63.88-32.63 64.58-32.88L64.58-32.88Q65.51-33.24 63.64-34.02L63.64-34.02Q62.78-34.38 61.16-34.95L61.16-34.95Q60.14-35.28 60-35.26 59.86-35.24 59.77-34.71L59.77-34.71Q59.49-31.66 58.04-27.85 56.6-24.05 54.65-21.08L54.65-21.08Q53.51-19.41 54.16-19.57L54.16-19.57Q54.73-19.69 56.56-21.4L56.56-21.4Q57.9-22.62 58.11-22.22L58.11-22.22Q58.35-21.73 57.78-17.74L57.78-17.74Q57.62-16.6 57.56-16.17 57.5-15.75 57.25-15.2 57.01-14.65 56.91-14.55 56.8-14.44 56.21-14.34 55.62-14.24 55.24-14.3 54.85-14.36 53.71-14.49L53.71-14.49Q52.9-14.57 52.9-14.44L52.9-14.44Q52.9-14.36 53.26-13.63L53.26-13.63Q53.59-12.9 53.75-12.8 53.91-12.7 54.44-12.9L54.44-12.9Q56.11-13.51 56.48-13.06L56.48-13.06Q57.05-12.41 56.23-7.41L56.23-7.41Q55.95-5.57 55.18-1.3L55.18-1.3Q55.09-0.81 55.91-0.57L55.91-0.57Q57.29-0.12 58.23-0.61L58.23-0.61Q58.59-0.77 58.63-1.06L58.63-1.06Q58.63-1.1 58.68-1.24 58.72-1.38 58.76-1.65 58.8-1.91 58.84-2.12L58.84-2.12Q58.88-2.28 58.92-2.56L58.92-2.56Q59.08-3.62 59.71-3.78 60.34-3.95 64.05-3.95L64.05-3.95Q64.98-3.95 65.51-3.95L65.51-3.95Q70.96-3.95 71.57-3.66L71.57-3.66Q72.02-3.42 71.61-2.56L71.61-2.56Q71.57-2.48 71.45-2.24L71.45-2.24Q71-1.22 70.07-1.02 69.13-0.81 66.28-1.06L66.28-1.06Q64.9-1.18 64.64-1.16 64.37-1.14 64.41-0.9L64.41-0.9Q64.45-0.69 64.64-0.57 64.82-0.45 65.31-0.35 65.8-0.24 65.92-0.2L65.92-0.2Q68.77 0.61 68.77 2.81L68.77 2.81Q68.77 3.17 68.89 3.3ZM71.66-5.21L71.66-5.21Q71.29-5.09 65.84-5.07 60.38-5.05 60.06-5.21L60.06-5.21Q59.57-5.41 59.57-5.92 59.57-6.43 59.98-9.2L59.98-9.2Q60.06-9.64 60.14-10.42L60.14-10.42Q60.38-12.53 60.99-12.88 61.6-13.22 64.98-13.18L64.98-13.18Q66.2-13.18 66.89-13.18L66.89-13.18Q71.45-13.14 72.06-12.98L72.06-12.98Q72.96-12.74 73-11.68L73-11.68Q73-11.43 72.71-8.83L72.71-8.83Q72.51-6.67 72.31-6.04 72.1-5.41 71.66-5.21ZM72.51-14.49L72.51-14.49Q72.18-14.32 66.96-14.32 61.73-14.32 61.4-14.49L61.4-14.49Q60.99-14.65 60.97-15.18 60.95-15.71 61.28-18.19L61.28-18.19Q61.69-21.16 61.99-21.71 62.3-22.26 63.52-22.14L63.52-22.14Q64.37-22.05 64.74-22.09L64.74-22.09Q71.29-22.26 72.14-22.05L72.14-22.05Q73.12-21.89 73.24-21.08L73.24-21.08Q73.28-20.91 73.28-19.21L73.28-19.21Q73.24-16.32 73.12-15.52 73-14.73 72.51-14.49ZM67.06-6.23L67.06-6.23Q68.12-5.82 68.75-6.43 69.38-7.04 69.23-8.14 69.09-9.24 68.2-10.13L68.2-10.13Q66.85-11.47 64.58-12.13L64.58-12.13Q63.19-12.49 63.23-12.04L63.23-12.04Q63.23-11.84 63.52-11.52L63.52-11.52Q64.41-10.54 65.27-9.16 66.12-7.77 66.32-6.92L66.32-6.92Q66.41-6.47 67.06-6.23ZM67.3-15.38L67.3-15.38Q68.93-14.81 69.34-16.19L69.34-16.19Q69.78-17.62 68.52-19.17L68.52-19.17Q68.12-19.69 67.5-20.1L67.5-20.1Q65.06-21.77 64.41-21.32L64.41-21.32Q64.13-21.16 64.58-20.47L64.58-20.47Q65.27-19.37 65.92-17.9 66.57-16.44 66.57-15.95L66.57-15.95Q66.57-15.63 67.3-15.38ZM47.97-18.96L47.97-18.96Q49.24-18.55 49.95-19.61 50.66-20.67 50.05-21.97L50.05-21.97Q49.11-24.13 45.04-24.98L45.04-24.98Q44.11-25.15 44.01-25.02 43.9-24.9 44.47-24.21L44.47-24.21Q46.26-22.22 46.96-20.06L46.96-20.06Q47.12-19.53 47.32-19.33 47.53-19.12 47.97-18.96ZM50.94-28.24L50.94-28.24Q52.21-27.79 53.02-28.65 53.83-29.5 53.43-30.84L53.43-30.84Q52.65-33.45 48.14-34.55L48.14-34.55Q46.96-34.83 46.81-34.65 46.67-34.46 47.44-33.57L47.44-33.57Q49.72-30.84 50.25-28.93L50.25-28.93Q50.37-28.48 50.94-28.24ZM85.61 3.38L85.61 3.38Q85.77 3.54 87.57 3.01L87.57 3.01Q96.19 0.45 102.25-4.31L102.25-4.31Q103.47-5.29 103.92-5.25 104.37-5.21 105.83-3.91L105.83-3.91Q111 0.53 117.68 3.09L117.68 3.09Q118 3.26 118.16 3.28 118.33 3.3 118.41 3.21 118.49 3.13 118.61 2.89L118.61 2.89Q119.06 1.99 120.08 1.24 121.09 0.49 122.07 0.33L122.07 0.33Q122.88 0.16 122.88 0L122.88 0Q122.88-0.2 121.26-0.73L121.26-0.73Q113.81-3.13 108.48-6.88L108.48-6.88Q107.1-7.85 107.06-8.3 107.01-8.75 108.19-10.21L108.19-10.21Q113.57-17.05 116.58-28.16L116.58-28.16Q116.86-29.17 117.13-29.56 117.39-29.95 117.88-30.03L117.88-30.03Q118.16-30.11 118.43-30.35 118.69-30.6 118.57-30.72L118.57-30.72Q118.45-30.8 115.6-31.6 112.75-32.39 112.59-32.35L112.59-32.35Q112.47-32.31 112.43-31.49L112.43-31.49Q112.06-26.86 110.21-21.77 108.36-16.68 105.51-12.41L105.51-12.41Q104.53-10.99 104.02-10.95 103.52-10.9 102.34-12.17L102.34-12.17Q95.21-19.9 92.69-30.76L92.69-30.76Q92.61-31.21 92.24-30.88L92.24-30.88Q92-30.68 92.04-30.35L92.04-30.35Q94.4-17.82 100.67-9.28L100.67-9.28Q101.56-8.14 101.52-7.75 101.48-7.36 100.3-6.23L100.3-6.23Q94.73-0.73 86.71 2.48L86.71 2.48Q86.22 2.69 85.98 2.79 85.73 2.89 85.61 2.99 85.49 3.09 85.51 3.17 85.53 3.26 85.61 3.38ZM104.25-23.56L104.25-23.56Q106.12-23.03 106.61-24.86L106.61-24.86Q107.14-26.9 105.67-29.46L105.67-29.46Q105.18-30.31 104.49-31.05L104.49-31.05Q102.74-32.88 100.14-34.18L100.14-34.18Q98.63-34.91 98.71-34.42L98.71-34.42Q98.75-34.3 98.88-34.1L98.88-34.1Q102.05-29.26 102.82-25.35L102.82-25.35Q102.99-24.37 103.25-24.07 103.52-23.76 104.25-23.56ZM127.4 3.26L127.4 3.26Q127.77 3.62 131.43 1.79L131.43 1.79Q137.9-1.34 141.17-5.57 144.45-9.81 145.83-16.76L145.83-16.76Q146.24-18.96 146.53-19.04L146.53-19.04Q146.73-19.08 146.89-18.47L146.89-18.47Q147.09-17.86 147.42-16.24L147.42-16.24Q148.84-8.95 151.75-4.48 154.66 0 159.79 2.85L159.79 2.85Q160.97 3.46 161.13 2.97L161.13 2.97Q161.91 0.65 164.1-0.08L164.1-0.08Q165.12-0.41 164.35-0.81L164.35-0.81Q164.1-0.9 163.74-1.06L163.74-1.06Q154.42-4.6 150.55-12.78L150.55-12.78Q149.82-14.24 149.98-14.69 150.15-15.14 151.69-16.19L151.69-16.19Q155.6-18.8 159.79-22.62L159.79-22.62Q161.42-24.13 161.91-24.21L161.91-24.21Q162.8-24.33 161.7-25.19L161.7-25.19Q161.09-25.68 159.51-26.65L159.51-26.65Q158.16-27.51 157.96-27.43L157.96-27.43Q157.8-27.38 157.39-26.61L157.39-26.61Q155.4-23.07 152.71-19.59 150.02-16.11 149.45-16.32L149.45-16.32Q148.84-16.56 148.09-20.3 147.34-24.05 146.97-28.85L146.97-28.85Q146.77-31.49 146.85-32.39 146.93-33.28 147.42-33.61L147.42-33.61Q148.27-34.14 146.57-34.51L146.57-34.51Q145.55-34.71 143.43-34.95L143.43-34.95Q142.37-35.07 142.25-34.97 142.13-34.87 142.21-33.98L142.21-33.98Q143.8-20.3 140.44-11.54 137.08-2.77 128.38 2.2L128.38 2.2Q127.89 2.48 127.67 2.62 127.44 2.77 127.34 2.89 127.24 3.01 127.26 3.07 127.28 3.13 127.4 3.26ZM131.35-13.14L131.35-13.14Q133.99-12.74 135.66-16.19 137.33-19.65 136.56-23.89L136.56-23.89Q135.86-27.67 135.34-27.55L135.34-27.55Q135.05-27.51 135.01-26.25L135.01-26.25Q134.89-23.68 134.01-21.48 133.14-19.29 131.63-17.9L131.63-17.9Q130.37-16.72 130.11-16.34 129.84-15.95 129.8-15.22L129.8-15.22Q129.76-14.44 130.21-13.85 130.66-13.26 131.35-13.14Z" transform="translate(-2.1563637256622314, 35.26114273071289)"></path></g> <!----> <!----> <!----> <!----> <!----> <!----> <!----></g></g> <g data-gra="path-slogan" fill-rule="" class="tp-slogan iconsvg-slogansvg" fill="#363383" transform="translate(29.95661163330078,-15.278858184814453)"><!----> <!----> <g transform="scale(1, 1)"><g transform="scale(1)"><path d="M7.17-6.09L7.17-6.09L6.09-6.09Q6-7.73 3.94-7.83L3.94-7.83Q2.02-7.78 2.02-6.33L2.02-6.33Q2.02-5.39 3.05-5.25L3.05-5.25L5.48-4.69Q7.41-4.22 7.41-2.34L7.41-2.34Q7.36 0.05 4.03 0.14L4.03 0.14Q2.20 0.14 1.45-0.61L1.45-0.61Q0.52-1.31 0.56-2.77L0.56-2.77L1.69-2.77Q1.73-0.80 4.03-0.75L4.03-0.75Q6.28-0.80 6.33-2.20L6.33-2.20Q6.52-3.38 4.45-3.75L4.45-3.75L2.67-4.13Q0.84-4.64 0.84-6.19L0.84-6.19Q0.98-8.72 3.84-8.81L3.84-8.81Q7.08-8.81 7.17-6.09ZM10.03-5.06L14.53-5.06L14.53-8.58L15.70-8.58L15.70 0L14.53 0L14.53-3.98L10.03-3.98L10.03 0L8.86 0L8.86-8.58L10.03-8.58L10.03-5.06ZM23.16 0L22.31-2.48L18.84-2.48L17.95 0L16.78 0L20.02-8.58L21.33-8.58L24.42 0L23.16 0ZM20.58-7.31L19.22-3.52L21.89-3.52L20.63-7.31L20.58-7.31ZM26.86-8.58L31.17-1.64L31.17-8.58L32.30-8.58L32.30 0L30.98 0L26.63-6.94L26.58-6.94L26.58 0L25.45 0L25.45-8.58L26.86-8.58ZM40.50-3.61L37.88-3.61L37.88-4.59L41.63-4.59L41.63 0L40.88 0L40.59-1.08Q39.61 0.09 37.78 0.14L37.78 0.14Q36.05 0.14 35.11-0.75L35.11-0.75Q33.70-2.06 33.75-4.36L33.75-4.36Q34.08-8.63 37.83-8.81L37.83-8.81Q41.02-8.63 41.48-6L41.48-6L40.36-6Q39.89-7.78 37.78-7.83L37.78-7.83Q35.11-7.64 34.97-4.31L34.97-4.31Q34.97-0.75 37.83-0.75L37.83-0.75Q38.86-0.75 39.61-1.31L39.61-1.31Q40.55-2.06 40.50-3.61L40.50-3.61ZM44.58-5.06L49.08-5.06L49.08-8.58L50.25-8.58L50.25 0L49.08 0L49.08-3.98L44.58-3.98L44.58 0L43.41 0L43.41-8.58L44.58-8.58L44.58-5.06ZM57.70 0L56.86-2.48L53.39-2.48L52.50 0L51.33 0L54.56-8.58L55.88-8.58L58.97 0L57.70 0ZM55.13-7.31L53.77-3.52L56.44-3.52L55.17-7.31L55.13-7.31ZM60.19-8.58L61.36-8.58L61.36 0L60.19 0L60.19-8.58ZM73.59-8.58L70.36-3.47L70.36 0L69.19 0L69.19-3.47L65.95-8.58L67.31-8.58L69.75-4.45L72.23-8.58L73.59-8.58ZM74.81-8.58L75.98-8.58L75.98 0L74.81 0L74.81-8.58ZM79.13-5.06L83.63-5.06L83.63-8.58L84.80-8.58L84.80 0L83.63 0L83.63-3.98L79.13-3.98L79.13 0L77.95 0L77.95-8.58L79.13-8.58L79.13-5.06ZM92.25-3.19L92.25-8.58L93.42-8.58L93.42-3.05Q93.28 0.05 89.91 0.14L89.91 0.14Q86.77 0.05 86.63-2.86L86.63-2.86L86.63-8.58L87.80-8.58L87.80-3.19Q87.84-0.84 89.95-0.80L89.95-0.80Q92.25-0.84 92.25-3.19L92.25-3.19ZM102-4.27L102-4.27Q101.81-7.64 99-7.83L99-7.83Q96.14-7.69 96-4.27L96-4.27Q96.14-0.94 99-0.80L99-0.80Q101.81-0.98 102-4.27ZM103.17-4.27L103.17-4.27Q102.89 0 99 0.14L99 0.14Q95.06 0 94.78-4.27L94.78-4.27Q95.02-8.72 99-8.81L99-8.81Q102.89-8.67 103.17-4.27Z" transform="translate(-0.5602678571428572, 8.8125)"></path></g></g></g></g></g><defs v-gra="od"></defs></svg>